<?xml version="1.0" encoding="UTF-8" standalone="no"?>
<!DOCTYPE svg PUBLIC "-//W3C//DTD SVG 1.1//EN" "http://www.w3.org/Graphics/SVG/1.1/DTD/svg11.dtd">
<svg width="100%" height="100%" viewBox="0 0 24 24" version="1.1" xmlns="http://www.w3.org/2000/svg" xmlns:xlink="http://www.w3.org/1999/xlink" xml:space="preserve" xmlns:serif="http://www.serif.com/" style="fill-rule:evenodd;clip-rule:evenodd;stroke-linejoin:round;stroke-miterlimit:2;">
    <g transform="matrix(0.0380378,0,0,0.0380378,-12.6485,24.1721)">
        <path d="M592,-40L574,-124C562.667,-128 552.167,-132.833 542.5,-138.5C532.833,-144.167 523.333,-150.667 514,-158L434,-132L378,-228L442,-284C440.667,-296 440,-308 440,-320C440,-332 440.667,-344 442,-356L378,-412L434,-508L514,-482C523.333,-489.333 532.833,-495.833 542.5,-501.5C552.167,-507.167 562.667,-512 574,-516L592,-600L704,-600L722,-516C733.333,-512 743.833,-507.167 753.5,-501.5C763.167,-495.833 772.667,-489.333 782,-482L862,-508L918,-412L854,-356C855.333,-344 856,-332 856,-320C856,-308 855.333,-296 854,-284L918,-228L862,-132L782,-158C772.667,-150.667 763.167,-144.167 753.5,-138.5C743.833,-132.833 733.333,-128 722,-124L704,-40L592,-40ZM648,-200C681.333,-200 709.667,-211.667 733,-235C756.333,-258.333 768,-286.667 768,-320C768,-353.333 756.333,-381.667 733,-405C709.667,-428.333 681.333,-440 648,-440C614.667,-440 586.333,-428.333 563,-405C539.667,-381.667 528,-353.333 528,-320C528,-286.667 539.667,-258.333 563,-235C586.333,-211.667 614.667,-200 648,-200Z"/>
    </g>
</svg>
