<?xml version="1.0" encoding="UTF-8" standalone="no"?>
<!DOCTYPE svg PUBLIC "-//W3C//DTD SVG 1.1//EN" "http://www.w3.org/Graphics/SVG/1.1/DTD/svg11.dtd">
<svg width="100%" height="100%" viewBox="0 0 24 24" version="1.1" xmlns="http://www.w3.org/2000/svg" xmlns:xlink="http://www.w3.org/1999/xlink" xml:space="preserve" xmlns:serif="http://www.serif.com/" style="fill-rule:evenodd;clip-rule:evenodd;stroke-linejoin:round;stroke-miterlimit:2;">
    <g transform="matrix(-0.025,0,0,0.025,24,24)">
        <path d="M160,-160C138,-160 119.167,-167.833 103.5,-183.5C87.833,-199.167 80,-218 80,-240L80,-720C80,-742 87.833,-760.833 103.5,-776.5C119.167,-792.167 138,-800 160,-800L800,-800C822,-800 840.833,-792.167 856.5,-776.5C872.167,-760.833 880,-742 880,-720L880,-240C880,-218 872.167,-199.167 856.5,-183.5C840.833,-167.833 822,-160 800,-160L160,-160ZM160,-240L520,-240L520,-400L160,-400L160,-240ZM600,-240L800,-240L800,-640L600,-640L600,-240ZM160,-480L520,-480L520,-640L160,-640L160,-480Z" style="fill:rgb(0,95,246);fill-rule:nonzero;"/>
    </g>
</svg>
