<?xml version="1.0" encoding="UTF-8" standalone="no"?>
<!DOCTYPE svg PUBLIC "-//W3C//DTD SVG 1.1//EN" "http://www.w3.org/Graphics/SVG/1.1/DTD/svg11.dtd">
<svg width="100%" height="100%" viewBox="0 0 24 24" version="1.1" xmlns="http://www.w3.org/2000/svg" xmlns:xlink="http://www.w3.org/1999/xlink" xml:space="preserve" xmlns:serif="http://www.serif.com/" style="fill-rule:evenodd;clip-rule:evenodd;stroke-linejoin:round;stroke-miterlimit:2;">
    <g transform="matrix(0.025,0,0,0.025,0,24)">
        <path d="M482,-160C392.667,-160 316.667,-191 254,-253C191.333,-315 160,-390.667 160,-480L160,-487L96,-423L40,-479L200,-639L360,-479L304,-423L240,-487L240,-480C240,-413.333 263.5,-356.667 310.5,-310C357.5,-263.333 414.667,-240 482,-240C499.333,-240 516.333,-242 533,-246C549.667,-250 566,-256 582,-264L642,-204C616.667,-189.333 590.667,-178.333 564,-171C537.333,-163.667 510,-160 482,-160ZM760,-321L600,-481L656,-537L720,-473L720,-480C720,-546.667 696.5,-603.333 649.5,-650C602.5,-696.667 545.333,-720 478,-720C460.667,-720 443.667,-718 427,-714C410.333,-710 394,-704 378,-696L318,-756C343.333,-770.667 369.333,-781.667 396,-789C422.667,-796.333 450,-800 478,-800C567.333,-800 643.333,-769 706,-707C768.667,-645 800,-569.333 800,-480L800,-473L864,-537L920,-481L760,-321Z" style="fill:rgb(0,95,246);fill-rule:nonzero;"/>
    </g>
</svg>
