<?xml version="1.0" encoding="UTF-8" standalone="no"?>
<!DOCTYPE svg PUBLIC "-//W3C//DTD SVG 1.1//EN" "http://www.w3.org/Graphics/SVG/1.1/DTD/svg11.dtd">
<svg width="100%" height="100%" viewBox="0 0 24 24" version="1.1" xmlns="http://www.w3.org/2000/svg" xmlns:xlink="http://www.w3.org/1999/xlink" xml:space="preserve" xmlns:serif="http://www.serif.com/" style="fill-rule:evenodd;clip-rule:evenodd;stroke-linejoin:round;stroke-miterlimit:2;">
    <g transform="matrix(0.025,0,0,0.025,0,24)">
        <path d="M200,-120C178,-120 159.167,-127.833 143.5,-143.5C127.833,-159.167 120,-178 120,-200L120,-760C120,-782 127.833,-800.833 143.5,-816.5C159.167,-832.167 178,-840 200,-840L640,-840L840,-640L840,-200C840,-178 832.167,-159.167 816.5,-143.5C800.833,-127.833 782,-120 760,-120L200,-120ZM200,-200L760,-200L760,-600L600,-600L600,-760L200,-760L200,-200ZM280,-280L680,-280L680,-360L280,-360L280,-280ZM280,-600L480,-600L480,-680L280,-680L280,-600ZM280,-440L680,-440L680,-520L280,-520L280,-440ZM200,-760L200,-600L200,-760L200,-200L200,-760Z" style="fill:rgb(0,95,246);fill-rule:nonzero;"/>
    </g>
</svg>
