<?xml version="1.0" encoding="UTF-8" standalone="no"?>
<!DOCTYPE svg PUBLIC "-//W3C//DTD SVG 1.1//EN" "http://www.w3.org/Graphics/SVG/1.1/DTD/svg11.dtd">
<svg width="100%" height="100%" viewBox="0 0 24 24" version="1.1" xmlns="http://www.w3.org/2000/svg" xmlns:xlink="http://www.w3.org/1999/xlink" xml:space="preserve" xmlns:serif="http://www.serif.com/" style="fill-rule:evenodd;clip-rule:evenodd;stroke-linejoin:round;stroke-miterlimit:2;">
    <g transform="matrix(0.025,0,0,0.025,0,24)">
        <path d="M200,-200L257,-200L648,-591L591,-648L200,-257L200,-200ZM120,-120L120,-290L648,-817C656,-824.333 664.833,-830 674.5,-834C684.167,-838 694.333,-840 705,-840C715.667,-840 726,-838 736,-834C746,-830 754.667,-824 762,-816L817,-760C825,-752.667 830.833,-744 834.5,-734C838.167,-724 840,-714 840,-704C840,-693.333 838.167,-683.167 834.5,-673.5C830.833,-663.833 825,-655 817,-647L290,-120L120,-120ZM760,-704L704,-760L760,-704ZM619,-619L591,-648L648,-591L619,-619Z" style="fill:rgb(0,95,246);fill-rule:nonzero;"/>
    </g>
</svg>
