<?xml version="1.0" encoding="UTF-8" standalone="no"?>
<!DOCTYPE svg PUBLIC "-//W3C//DTD SVG 1.1//EN" "http://www.w3.org/Graphics/SVG/1.1/DTD/svg11.dtd">
<svg width="100%" height="100%" viewBox="0 0 24 24" version="1.1" xmlns="http://www.w3.org/2000/svg" xmlns:xlink="http://www.w3.org/1999/xlink" xml:space="preserve" xmlns:serif="http://www.serif.com/" style="fill-rule:evenodd;clip-rule:evenodd;stroke-linejoin:round;stroke-miterlimit:2;">
    <g>
        <path d="M20.5,7.54L20.5,17.302C20.5,19.067 19.067,20.5 17.302,20.5L6.698,20.5C4.933,20.5 3.5,19.067 3.5,17.302L3.5,6.698C3.5,4.933 4.933,3.5 6.698,3.5L16.46,3.5C16.593,3.5 16.72,3.552 16.814,3.646L20.354,7.186C20.448,7.28 20.5,7.407 20.5,7.54ZM12,11.507C10.317,11.507 8.951,12.873 8.951,14.556C8.951,16.239 10.317,17.605 12,17.605C13.683,17.605 15.049,16.239 15.049,14.556C15.049,12.873 13.683,11.507 12,11.507ZM13.554,6.655C13.554,6.379 13.33,6.155 13.054,6.155L6.797,6.155C6.521,6.155 6.297,6.379 6.297,6.655L6.297,8.425C6.297,8.701 6.521,8.925 6.797,8.925L13.054,8.925C13.33,8.925 13.554,8.701 13.554,8.425L13.554,6.655Z" style="fill:rgb(0,95,246);"/>
    </g>
</svg>
